<?xml version="1.0" encoding="UTF-8"?>
<svg version="1.1" xmlns="http://www.w3.org/2000/svg" xmlns:xlink="http://www.w3.org/1999/xlink" x="0px" y="0px" viewBox="0 0 26 26" style="enable-background:new 0 0 26 26;" xml:space="preserve">
<circle class="close-circle" cx="13" cy="13" r="12"/>
<path class="close-cross" d="M13.1,11.7l2.7-2.7c0.4-0.4,1-0.4,1.4,0c0.4,0.4,0.4,1,0,1.4l-2.7,2.7l2.7,2.7  c0.4,0.4,0.4,1,0,1.4c-0.4,0.4-1,0.4-1.4,0l-2.7-2.7l-2.7,2.7c-0.4,0.4-1,0.4-1.4,0s-0.4-1,0-1.4l2.7-2.7l-2.7-2.7  c-0.4-0.4-0.4-1,0-1.4s1-0.4,1.4,0L13.1,11.7z"/>
</svg>